<svg xmlns="http://www.w3.org/2000/svg" xmlns:xlink="http://www.w3.org/1999/xlink" version="1.1" id="Layer_1" x="0px" y="0px" width="100%" viewBox="0 0 1000 1000" enable-background="new 0 0 1000 1000" xml:space="preserve">

<path fill="#000" opacity="1.000000" stroke="none" d=" M787.071045,735.061340   C779.172729,736.071167 771.713074,737.860840 764.249939,737.875122   C666.084351,738.062683 567.918213,738.000916 469.752228,737.991516   C468.282043,737.991394 466.811859,737.863586 464.534576,737.757996   C466.088196,731.591309 467.488983,725.800110 469.008240,720.040222   C475.978271,693.614807 482.105957,666.924866 490.239105,640.861267   C497.227112,618.467468 513.630798,605.401367 537.154175,602.029358   C541.541565,601.400452 546.008545,601.046692 550.439331,601.042358   C613.772156,600.980225 677.105225,600.934692 740.437927,601.041748   C758.310913,601.072021 772.944885,594.858398 784.021790,580.537476   C795.202576,566.082092 798.518311,549.816467 792.786377,532.821289   C786.402954,513.894470 772.720215,501.650452 752.928528,497.161011   C748.318726,496.115356 743.418762,496.060699 738.650879,496.047211   C706.651306,495.956451 674.651428,496.000000 642.651611,496.000000   C640.865906,496.000000 639.080139,496.000000 636.805054,496.000000   C642.987122,473.321655 648.383606,451.012390 655.248413,429.164459   C660.417847,412.711975 672.312134,401.584381 688.319092,395.016479   C695.870300,391.918060 703.702637,390.862335 711.861450,390.935913   C733.026245,391.126801 754.195679,390.832947 775.359985,391.048279   C795.408081,391.252258 811.137695,379.562561 815.313416,360.256531   C817.461853,350.323059 814.414368,341.503967 808.893188,333.491577   C801.315186,322.494080 790.413269,317.965759 777.262390,317.978485   C723.762756,318.030182 670.261169,318.267151 616.764404,317.875153   C593.744385,317.706482 571.597229,301.180634 564.325073,278.513336   C559.912354,264.758789 561.310242,250.976669 565.292664,237.192642   C570.213440,220.160477 574.548767,202.958221 579.051147,185.806931   C579.968140,182.313950 581.617493,180.893143 585.551331,180.900238   C660.550598,181.035446 735.554565,180.546570 810.546814,181.286804   C832.004761,181.498611 852.608887,187.741547 871.830017,198.137054   C887.708191,206.724625 902.078369,217.079803 914.560059,230.072617   C929.514832,245.639847 940.542175,263.687042 947.900330,283.932953   C952.936401,297.789825 955.843506,312.055847 957.187805,326.841553   C959.532837,352.632416 954.572449,376.939178 945.096558,400.687988   C936.312988,422.701752 921.938965,440.640411 904.840149,456.603577   C897.538696,463.420044 897.678528,463.095245 902.906494,471.862396   C914.853943,491.897583 923.655579,513.204285 926.957947,536.452637   C928.341553,546.192871 930.011536,556.059692 929.771973,565.825195   C929.383118,581.675110 926.722961,597.261108 922.323303,612.672729   C915.843872,635.369507 904.896118,655.557922 890.433472,673.864319   C879.969604,687.109253 867.338196,698.281616 853.406982,707.874817   C837.022217,719.157593 818.980408,726.925842 799.961487,732.485229   C795.909973,733.669495 791.664307,734.189758 787.071045,735.061340  z"/>
<path fill="#000" opacity="1.000000" stroke="none" d=" M496.018921,283.883118   C488.828247,298.621674 478.568665,309.871826 463.005096,314.811371   C455.627960,317.152710 447.682556,318.718811 439.971466,318.816956   C406.477631,319.243439 372.968384,319.412079 339.478485,318.851715   C317.992798,318.492218 297.261658,321.218597 277.347137,329.322601   C264.376190,334.600983 252.863510,342.216095 242.148331,351.247559   C227.189728,363.855743 216.038773,379.283417 207.746094,396.783691   C200.462784,412.153870 195.708893,428.371399 192.946930,445.203217   C187.085312,480.924652 196.395096,513.246155 216.368820,542.368347   C236.067291,571.089233 263.625641,589.637085 297.667450,597.658203   C306.857483,599.823608 316.511047,600.582397 325.984863,600.859741   C342.969879,601.357117 359.983917,600.775208 376.978302,601.073486   C389.898438,601.300232 399.003235,608.395813 402.650909,619.311646   C405.099823,626.639893 403.017059,633.734924 401.051331,640.877319   C392.244385,672.877197 383.607422,704.923950 374.898163,736.950745   C374.821808,737.231567 374.595734,737.471741 374.281158,737.993835   C354.436829,737.993835 334.423767,738.656677 314.473511,737.820557   C291.237549,736.846741 268.268005,733.048706 246.097305,725.852478   C217.401566,716.538208 190.609695,703.433105 166.377243,685.096436   C150.982788,673.447449 136.503464,660.737061 124.156563,646.143738   C111.971725,631.741943 101.317734,615.907104 91.183296,599.944763   C79.595459,581.693298 71.710220,561.558044 66.093704,540.688416   C62.586189,527.655334 59.021523,514.485107 57.368000,501.142731   C55.118172,482.988831 53.354996,464.653534 55.942051,446.272736   C57.175396,437.509979 57.717926,428.646393 59.064850,419.904175   C60.478802,410.726959 61.811012,401.448669 64.357513,392.551880   C70.769218,370.151184 77.709053,347.908386 88.908905,327.259979   C98.451912,309.666168 109.641869,293.299622 122.444023,277.873444   C139.313400,257.546417 159.142059,240.793030 181.106125,226.389297   C209.639755,207.677292 240.813263,195.039734 273.897583,187.236313   C284.040985,184.843857 294.616516,183.358521 305.024475,183.174637   C347.617523,182.422104 390.221863,182.252151 432.822876,182.028442   C461.321442,181.878784 489.821442,182.000000 518.320801,182.000000   C520.131531,182.000000 521.942261,182.000000 524.249695,182.000000   C521.406616,192.715790 518.749390,202.923584 515.986816,213.102768   C510.363373,233.823380 504.706696,254.535080 498.998413,275.232452   C498.223480,278.042206 497.072968,280.748444 496.018921,283.883118  z"/>
</svg>